<?xml version="1.0" encoding="UTF-8" standalone="no"?>
<!-- Created with Inkscape (http://www.inkscape.org/) -->

<svg
   xmlns:dc="http://purl.org/dc/elements/1.1/"
   xmlns:cc="http://creativecommons.org/ns#"
   xmlns:rdf="http://www.w3.org/1999/02/22-rdf-syntax-ns#"
   xmlns:svg="http://www.w3.org/2000/svg"
   xmlns="http://www.w3.org/2000/svg"
   xmlns:sodipodi="http://sodipodi.sourceforge.net/DTD/sodipodi-0.dtd"
   xmlns:inkscape="http://www.inkscape.org/namespaces/inkscape"
   version="1.1"
   id="svg2"
   width="230"
   height="26"
   viewBox="0 0 230 26"
   sodipodi:docname="scroll.svg"
   inkscape:version="0.92.4 (f8dce91, 2019-08-02)">
  <metadata
     id="metadata8">
    <rdf:RDF>
      <cc:Work
         rdf:about="">
        <dc:format>image/svg+xml</dc:format>
        <dc:type
           rdf:resource="http://purl.org/dc/dcmitype/StillImage" />
        <dc:title></dc:title>
      </cc:Work>
    </rdf:RDF>
  </metadata>
  <defs
     id="defs6" />
  <sodipodi:namedview
     pagecolor="#ffffff"
     bordercolor="#666666"
     borderopacity="1"
     objecttolerance="10"
     gridtolerance="10"
     guidetolerance="10"
     inkscape:pageopacity="0"
     inkscape:pageshadow="2"
     inkscape:window-width="1366"
     inkscape:window-height="706"
     id="namedview4"
     showgrid="false"
     inkscape:zoom="1.5217391"
     inkscape:cx="115"
     inkscape:cy="13"
     inkscape:window-x="0"
     inkscape:window-y="0"
     inkscape:window-maximized="1"
     inkscape:current-layer="svg2" />
  <path
     style="fill:#000000"
     d="m 1.3714284,13.742857 c 0,-0.55 0.45,-1 1,-1 0.55,0 1,-0.9 1,-2 0,-1.1000003 0.45,-2.0000003 1,-2.0000003 0.55,0 1,-0.9 1,-2 0,-1.1 0.45,-2 1,-2 0.55,0 1,-0.9 1,-2 0,-1.1 0.45,-1.99999999 1,-1.99999999 0.55,0 1,0.89999999 1,1.99999999 0,1.1 0.45,2 0.9999996,2 0.55,0 1,0.9 1,2 0,1.1 0.45,2 1,2 0.55,0 1,0.9 1,2.0000003 0,1.1 0.45,2 1,2 0.55,0 1,0.45 1,1 0,0.571429 -3,1 -6.9999996,1 -4,0 -7,-0.428571 -7,-1 z m 16.0000006,0 c 0,-0.55 0.45,-1 1,-1 0.55,0 1,-0.9 1,-2 0,-1.1000003 0.45,-2.0000003 1,-2.0000003 0.55,0 1,-0.9 1,-2 0,-1.1 0.45,-2 1,-2 0.55,0 1,-0.9 1,-2 0,-1.1 0.45,-1.99999999 1,-1.99999999 0.55,0 1,0.89999999 1,1.99999999 0,1.1 0.45,2 1,2 0.55,0 1,0.9 1,2 0,1.1 0.45,2 1,2 0.55,0 1,0.9 1,2.0000003 0,1.1 0.45,2 1,2 0.55,0 1,0.45 1,1 0,0.571429 -3,1 -7,1 -4,0 -7,-0.428571 -7,-1 z m 16,0 c 0,-0.55 0.45,-1 1,-1 0.55,0 1,-0.9 1,-2 0,-1.1000003 0.449999,-2.0000003 0.999999,-2.0000003 0.55,0 1,-0.9 1,-2 0,-1.1 0.45,-2 1,-2 0.55,0 1,-0.9 1,-2 0,-1.1 0.45,-1.99999999 1,-1.99999999 0.55,0 1,0.89999999 1,1.99999999 0,1.1 0.45,2 1,2 0.55,0 1,0.9 1,2 0,1.1 0.45,2 1,2 0.55,0 1,0.9 1,2.0000003 0,1.1 0.45,2 1,2 0.55,0 1,0.45 1,1 0,0.571429 -3,1 -7,1 -4,0 -6.999999,-0.428571 -6.999999,-1 z m 33.249999,-0.495831 c -1.731804,-1.966991 -1.570919,-2.504169 0.75,-2.504169 1.1,0 2,0.45 2,1 0,0.55 1.35,1 3,1 2.333333,0 3,-0.444444 3,-2 0,-1.6266673 -0.666667,-2.0000003 -3.571429,-2.0000003 -3.539219,0 -6.428571,-1.797819 -6.428571,-4 0,-3.606502 7.670546,-5.47231099 10.571429,-2.571428 1.937875,1.937875 1.797085,2.571428 -0.571429,2.571428 -1.1,0 -2,-0.45 -2,-1 0,-0.55 -0.9,-1 -2,-1 -1.333333,0 -2,0.666667 -2,2 0,1.626667 0.666667,2 3.571429,2 3.539219,0 6.428571,1.797819 6.428571,4.0000003 0,3.69446 -9.97682,5.653961 -12.75,2.504169 z m 16,0 C 80.95172,11.350563 81.03796,7.9334677 82.799999,6.1714277 c 1.644776,-1.644775 12.571429,-2.017274 12.571429,-0.428571 0,0.55 -2.25,1 -5,1 -4.888889,0 -5,0.06667 -5,3 0,2.9333333 0.111111,3.0000003 5,3.0000003 2.75,0 5,0.45 5,1 0,1.590404 -11.300114,1.150957 -12.75,-0.495831 z m 16.75,-3.5041693 c 0,-4.26087 0.28333,-5 1.916672,-5 1.05416,0 2.17916,0.5625 2.5,1.25 0.46666,1 0.7,1 1.16666,0 0.69027,-1.479135 6.41667,-1.702242 6.41667,-0.25 0,0.55 -1.15714,1 -2.57143,1 -3.28046,0 -5.42857,2.148111 -5.42857,5.4285713 0,1.904762 -0.51852,2.571429 -2,2.571429 -1.733332,0 -2.000002,-0.666667 -2.000002,-5.0000003 z m 15.250002,3.5041693 c -1.66971,-1.896463 -1.58347,-5.3135583 0.17857,-7.0755983 1.84756,-1.847559 9.2953,-1.847559 11.14286,0 1.83202,1.832026 1.83202,5.3108323 0,7.1428583 -1.84857,1.848565 -9.67561,1.802065 -11.32143,-0.06726 z m 8.75,-3.5041693 c 0,-2.666667 -0.33333,-3 -3,-3 -2.66667,0 -3,0.333333 -3,3 0,2.6666673 0.33333,3.0000003 3,3.0000003 2.66667,0 3,-0.333333 3,-3.0000003 z m 8,4.0000003 c 0,-0.55 0.9,-1 2,-1 1.73333,0 2,-0.666667 2,-5.0000003 0,-2.75 -0.45,-5 -1,-5 -0.55,0 -1,-0.45 -1,-1 0,-0.55 1.35,-0.99999999 3,-0.99999999 h 3 V 6.7428567 c 0,5.3333333 0.22222,6.0000003 2,6.0000003 1.1,0 2,0.45 2,1 0,0.555556 -2.66667,1 -6,1 -3.33333,0 -6,-0.444444 -6,-1 z m 16,0 c 0,-0.55 0.9,-1 2,-1 1.73333,0 2,-0.666667 2,-5.0000003 0,-2.75 -0.45,-5 -1,-5 -0.55,0 -1,-0.45 -1,-1 0,-0.55 1.35,-0.99999999 3,-0.99999999 h 3 V 6.7428567 c 0,5.3333333 0.22222,6.0000003 2,6.0000003 1.1,0 2,0.45 2,1 0,0.555556 -2.66667,1 -6,1 -3.33333,0 -6,-0.444444 -6,-1 z m 36,-1 c 0,-1.1 -0.45,-2 -1,-2 -0.55,0 -1,-0.9000003 -1,-2.0000003 0,-1.1 -0.45,-2 -1,-2 -0.55,0 -1,-0.9 -1,-2 0,-1.1 -0.45,-2 -1,-2 -0.55,0 -1,-0.45 -1,-1 0,-0.571428 3,-0.99999999 7,-0.99999999 4,0 7,0.42857199 7,0.99999999 0,0.55 -0.45,1 -1,1 -0.55,0 -1,0.9 -1,2 0,1.1 -0.45,2 -1,2 -0.55,0 -1,0.9 -1,2 0,1.1 -0.45,2.0000003 -1,2.0000003 -0.55,0 -1,0.9 -1,2 0,1.1 -0.45,2 -1,2 -0.55,0 -1,-0.9 -1,-2 z m 16,0 c 0,-1.1 -0.45,-2 -1,-2 -0.55,0 -1,-0.9000003 -1,-2.0000003 0,-1.1 -0.45,-2 -1,-2 -0.55,0 -1,-0.9 -1,-2 0,-1.1 -0.45,-2 -1,-2 -0.55,0 -1,-0.45 -1,-1 0,-0.571428 3,-0.99999999 7,-0.99999999 4,0 7,0.42857199 7,0.99999999 0,0.55 -0.45,1 -1,1 -0.55,0 -1,0.9 -1,2 0,1.1 -0.45,2 -1,2 -0.55,0 -1,0.9 -1,2 0,1.1 -0.45,2.0000003 -1,2.0000003 -0.55,0 -1,0.9 -1,2 0,1.1 -0.45,2 -1,2 -0.55,0 -1,-0.9 -1,-2 z m 16,0 c 0,-1.1 -0.45,-2 -1,-2 -0.55,0 -1,-0.9000003 -1,-2.0000003 0,-1.1 -0.45,-2 -1,-2 -0.55,0 -1,-0.9 -1,-2 0,-1.1 -0.45,-2 -1,-2 -0.55,0 -1,-0.45 -1,-1 0,-0.571428 3,-0.99999999 7,-0.99999999 4,0 7,0.42857199 7,0.99999999 0,0.55 -0.45,1 -1,1 -0.55,0 -1,0.9 -1,2 0,1.1 -0.45,2 -1,2 -0.55,0 -1,0.9 -1,2 0,1.1 -0.45,2.0000003 -1,2.0000003 -0.55,0 -1,0.9 -1,2 0,1.1 -0.45,2 -1,2 -0.55,0 -1,-0.9 -1,-2 z"
     id="path821" />
</svg>
