<?xml version="1.0" encoding="UTF-8" standalone="no"?>
<svg
   xmlns:dc="http://purl.org/dc/elements/1.1/"
   xmlns:cc="http://creativecommons.org/ns#"
   xmlns:rdf="http://www.w3.org/1999/02/22-rdf-syntax-ns#"
   xmlns:svg="http://www.w3.org/2000/svg"
   xmlns="http://www.w3.org/2000/svg"
   xmlns:sodipodi="http://sodipodi.sourceforge.net/DTD/sodipodi-0.dtd"
   xmlns:inkscape="http://www.inkscape.org/namespaces/inkscape"
   width="100"
   height="100"
   version="1.1"
   id="svg21"
   sodipodi:docname="sun.svg"
   inkscape:version="0.92.4 (f8dce91, 2019-08-02)">
  <defs>
    <linearGradient id="linear" x1="100%" y1="0%" x2="100%" y2="100%">
      <stop offset="0%" stop-color="#F5D300"/>
      <stop offset="100%" stop-color="#FF2281"/>
    </linearGradient>
  </defs>
  <path
     d="M 50 0 A 50 50 0 0 0 0 50 A 50 50 0 0 0 0.81054688 58.875 L 99.164062 58.875 A 50 50 0 0 0 100 50 A 50 50 0 0 0 50 0 z M 1.3164062 61.125 A 50 50 0 0 0 1.9882812 63.875 L 97.998047 63.875 A 50 50 0 0 0 98.699219 61.125 L 1.3164062 61.125 z M 2.7363281 66.125 A 50 50 0 0 0 3.7382812 68.875 L 96.269531 68.875 A 50 50 0 0 0 97.275391 66.125 L 2.7363281 66.125 z M 4.7441406 71.125 A 50 50 0 0 0 6.125 73.875 L 93.925781 73.875 A 50 50 0 0 0 95.253906 71.125 L 4.7441406 71.125 z M 7.4160156 76.125 A 50 50 0 0 0 9.2558594 78.875 L 90.779297 78.875 A 50 50 0 0 0 92.558594 76.125 L 7.4160156 76.125 z M 10.873047 81.125 A 50 50 0 0 0 13.289062 83.875 L 86.691406 83.875 A 50 50 0 0 0 89.068359 81.125 L 10.873047 81.125 z M 15.515625 86.125 A 50 50 0 0 0 18.621094 88.875 L 81.412109 88.875 A 50 50 0 0 0 84.542969 86.125 L 15.515625 86.125 z M 21.580078 91.125 A 50 50 0 0 0 26.023438 93.875 L 73.875 93.875 A 50 50 0 0 0 78.341797 91.125 L 21.580078 91.125 z M 30.726562 96.125 A 50 50 0 0 0 50 100 A 50 50 0 0 0 69.181641 96.125 L 30.726562 96.125 z "
     fill="url(#linear)" />
</svg>
