<?xml version="1.0" encoding="UTF-8" standalone="no"?>
<svg
   xmlns:dc="http://purl.org/dc/elements/1.1/"
   xmlns:cc="http://creativecommons.org/ns#"
   xmlns:rdf="http://www.w3.org/1999/02/22-rdf-syntax-ns#"
   xmlns:svg="http://www.w3.org/2000/svg"
   xmlns="http://www.w3.org/2000/svg"
   xmlns:sodipodi="http://sodipodi.sourceforge.net/DTD/sodipodi-0.dtd"
   xmlns:inkscape="http://www.inkscape.org/namespaces/inkscape"
   width="500"
   height="100"
   version="1.1"
   id="svg21"
   sodipodi:docname="ground.svg"
   inkscape:version="0.92.4 (f8dce91, 2019-08-02)">
  <defs>
    <linearGradient id="ground-linear" x1="100%" y1="0%" x2="100%" y2="100%">
      <stop offset="0%" stop-color="#7122FA"/>
      <stop offset="75%" stop-color="#560A86"/>
    </linearGradient>
  </defs>
  <rect id="ground" width="100%" height="100%" fill="url(#ground-linear)" />
  <g id="horizontal-lines">
    <line x1="0" y1="0" x2="500" y2="0" style="stroke:rgb(255,255,255);stroke-width:0.25" />
    <line x1="0" y1="1" x2="500" y2="1" style="stroke:rgb(255,255,255);stroke-width:0.25" />
    <line x1="0" y1="2" x2="500" y2="2" style="stroke:rgb(255,255,255);stroke-width:0.25" />
    <line x1="0" y1="4" x2="500" y2="4" style="stroke:rgb(255,255,255);stroke-width:0.25" />
    <line x1="0" y1="8" x2="500" y2="8" style="stroke:rgb(255,255,255);stroke-width:0.25" />

    <line x1="0" y1="16" x2="500" y2="16" style="stroke:rgb(255,255,255);stroke-width:0.5" />
    <line x1="0" y1="26" x2="500" y2="26" style="stroke:rgb(255,255,255);stroke-width:0.5" />
    <line x1="0" y1="36" x2="500" y2="36" style="stroke:rgb(255,255,255);stroke-width:0.5" />
    <line x1="0" y1="46" x2="500" y2="46" style="stroke:rgb(255,255,255);stroke-width:0.5" />

    <line x1="0" y1="56" x2="500" y2="56" style="stroke:rgb(255,255,255);stroke-width:0.75" />
    <line x1="0" y1="66" x2="500" y2="66" style="stroke:rgb(255,255,255);stroke-width:0.75" />
    <line x1="0" y1="76" x2="500" y2="76" style="stroke:rgb(255,255,255);stroke-width:0.75" />
    <line x1="0" y1="86" x2="500" y2="86" style="stroke:rgb(255,255,255);stroke-width:0.75" />

    <line x1="0" y1="96" x2="500" y2="96" style="stroke:rgb(255,255,255);stroke-width:1" />
  </g>
  <g id="vertical-lines">
    <line x1="25" y1="0" x2="-65" y2="100" style="stroke:rgb(255,255,255);stroke-width:1" />
    <line x1="50" y1="0" x2="-30" y2="100" style="stroke:rgb(255,255,255);stroke-width:1" />
    <line x1="75" y1="0" x2="5" y2="100" style="stroke:rgb(255,255,255);stroke-width:1" />
    <line x1="100" y1="0" x2="45" y2="100" style="stroke:rgb(255,255,255);stroke-width:1" />
    <line x1="125" y1="0" x2="80" y2="100" style="stroke:rgb(255,255,255);stroke-width:1" />
    <line x1="150" y1="0" x2="115" y2="100" style="stroke:rgb(255,255,255);stroke-width:1" />
    <line x1="175" y1="0" x2="150" y2="100" style="stroke:rgb(255,255,255);stroke-width:1" />
    <line x1="200" y1="0" x2="185" y2="100" style="stroke:rgb(255,255,255);stroke-width:1" />
    <line x1="225" y1="0" x2="220" y2="100" style="stroke:rgb(255,255,255);stroke-width:1" />
    <!-- Center -->
    <line x1="250" y1="0" x2="250" y2="100" style="stroke:rgb(255,255,255);stroke-width:1" />
    <line x1="275" y1="0" x2="280" y2="100" style="stroke:rgb(255,255,255);stroke-width:1" />
    <line x1="275" y1="0" x2="280" y2="100" style="stroke:rgb(255,255,255);stroke-width:1" />
    <line x1="300" y1="0" x2="315" y2="100" style="stroke:rgb(255,255,255);stroke-width:1" />
    <line x1="325" y1="0" x2="350" y2="100" style="stroke:rgb(255,255,255);stroke-width:1" />
    <line x1="350" y1="0" x2="385" y2="100" style="stroke:rgb(255,255,255);stroke-width:1" />
    <line x1="375" y1="0" x2="420" y2="100" style="stroke:rgb(255,255,255);stroke-width:1" />
    <line x1="400" y1="0" x2="455" y2="100" style="stroke:rgb(255,255,255);stroke-width:1" />
    <line x1="425" y1="0" x2="490" y2="100" style="stroke:rgb(255,255,255);stroke-width:1" />
    <line x1="450" y1="0" x2="525" y2="100" style="stroke:rgb(255,255,255);stroke-width:1" />
    <line x1="475" y1="0" x2="560" y2="100" style="stroke:rgb(255,255,255);stroke-width:1" />
  </g>
</svg>
