<?xml version="1.0" encoding="UTF-8" standalone="no"?>
<!-- Created with Inkscape (http://www.inkscape.org/) -->

<svg
   xmlns:dc="http://purl.org/dc/elements/1.1/"
   xmlns:cc="http://creativecommons.org/ns#"
   xmlns:rdf="http://www.w3.org/1999/02/22-rdf-syntax-ns#"
   xmlns:svg="http://www.w3.org/2000/svg"
   xmlns="http://www.w3.org/2000/svg"
   xmlns:sodipodi="http://sodipodi.sourceforge.net/DTD/sodipodi-0.dtd"
   xmlns:inkscape="http://www.inkscape.org/namespaces/inkscape"
   version="1.1"
   id="svg2"
   width="549"
   height="23"
   viewBox="0 0 549 23"
   sodipodi:docname="click.svg"
   inkscape:version="0.92.4 (f8dce91, 2019-08-02)">
  <metadata
     id="metadata8">
    <rdf:RDF>
      <cc:Work
         rdf:about="">
        <dc:format>image/svg+xml</dc:format>
        <dc:type
           rdf:resource="http://purl.org/dc/dcmitype/StillImage" />
        <dc:title></dc:title>
      </cc:Work>
    </rdf:RDF>
  </metadata>
  <defs
     id="defs6" />
  <sodipodi:namedview
     pagecolor="#ffffff"
     bordercolor="#666666"
     borderopacity="1"
     objecttolerance="10"
     gridtolerance="10"
     guidetolerance="10"
     inkscape:pageopacity="0"
     inkscape:pageshadow="2"
     inkscape:window-width="1366"
     inkscape:window-height="706"
     id="namedview4"
     showgrid="false"
     inkscape:zoom="0.63752277"
     inkscape:cx="274.5"
     inkscape:cy="11.5"
     inkscape:window-x="0"
     inkscape:window-y="0"
     inkscape:window-maximized="1"
     inkscape:current-layer="svg2" />
  <path
     style="fill:#000000"
     d="m 278.56857,19 c 0,-0.55 1.35,-1 3,-1 2.83333,0 3,-0.222222 3,-4 0,-2.2 -0.45,-4 -1,-4 -0.55,0 -1,-0.4499997 -1,-0.9999997 0,-0.55 1.35,-1 3,-1 2.89583,0 3,0.15873 3,4.5714287 0,2.628571 -0.60714,5.178571 -1.42857,6 -1.61522,1.615214 -8.57143,1.963025 -8.57143,0.428571 z m 46,-5 V 8.0000003 H 330.14 c 5.45292,0 8.42857,1.412172 8.42857,3.9999997 0,2.202181 -2.88935,4 -6.42857,4 -2.90476,0 -3.57143,0.373333 -3.57143,2 0,1.333333 -0.66667,2 -2,2 -1.77778,0 -2,-0.666667 -2,-6 z m 10,-2 c 0,-1.555556 -0.66667,-2 -3,-2 -2.33333,0 -3,0.444444 -3,2 0,1.555556 0.66667,2 3,2 2.33333,0 3,-0.444444 3,-2 z M 10.568571,16 c 0,-1.1 -0.45,-2 -0.9999997,-2 -0.55,0 -1,-0.9 -1,-2 0,-1.1 -0.45,-2 -1,-2 -0.55,0 -1,-0.8999997 -1,-1.9999997 0,-1.1 -0.45,-2 -1,-2 -0.55,0 -1,-0.45 -1,-1 0,-0.571429 3,-1 6.9999997,-1 4,0 7,0.428571 7,1 0,0.55 -0.45,1 -1,1 -0.55,0 -1,0.9 -1,2 0,1.1 -0.45,1.9999997 -1,1.9999997 -0.55,0 -1,0.9 -1,2 0,1.1 -0.45,2 -1,2 -0.55,0 -1,0.9 -1,2 0,1.1 -0.45,2 -1,2 -0.55,0 -1,-0.9 -1,-2 z m 28.25,-0.525429 c -2.914229,-3.112532 -2.849523,-5.9659577 0.204545,-9.0200257 2.780541,-2.78054 7.848377,-3.29448 10.116884,-1.025974 1.937875,1.937875 1.797085,2.571429 -0.571429,2.571429 -1.1,0 -2,-0.45 -2,-1 0,-1.485236 -2.932548,-1.21031 -4.571429,0.428571 C 39.137543,10.28817 41.136684,16 44.997142,16 c 0.864286,0 1.571429,-0.45 1.571429,-1 0,-0.55 0.9,-1 2,-1 2.368514,0 2.509304,0.633554 0.571429,2.571429 -2.248515,2.248514 -7.735106,1.665455 -10.321429,-1.096858 z M 54.568571,17 c 0,-0.55 0.9,-1 2,-1 1.733333,0 2,-0.666667 2,-5 0,-2.7499997 -0.45,-4.9999997 -1,-4.9999997 -0.55,0 -1,-0.45 -1,-1 0,-0.55 1.35,-1 3,-1 h 3 V 10 c 0,5.333333 0.222222,6 2,6 1.1,0 2,0.45 2,1 0,0.555556 -2.666667,1 -6,1 -3.333333,0 -6,-0.444444 -6,-1 z m 16,0 c 0,-0.55 0.9,-1 2,-1 1.555556,0 2,-0.666667 2,-3 0,-1.65 -0.45,-3 -1,-3 -0.55,0 -1,-0.4499997 -1,-0.9999997 0,-0.55 1.35,-1 3,-1 2.833333,0 3,0.222222 3,3.9999997 0,3.333333 0.333333,4 2,4 1.1,0 2,0.45 2,1 0,0.555556 -2.666667,1 -6,1 -3.333333,0 -6,-0.444444 -6,-1 z m 15.250003,-0.495831 c -1.66971,-1.896463 -1.58347,-5.313558 0.17857,-7.0755977 1.64477,-1.644775 12.57143,-2.017275 12.57143,-0.428571 0,0.55 -2.25,0.9999997 -5,0.9999997 -4.88889,0 -5,0.06667 -5,3 0,2.933333 0.11111,3 5,3 2.75,0 5,0.45 5,1 0,1.590404 -11.30012,1.150957 -12.75,-0.495831 z M 100.56857,11 c 0,-6.3333337 0.19047,-6.9999997 2,-6.9999997 1.55556,0 2,0.666666 2,3 0,2.333333 0.44444,2.9999997 2,2.9999997 1.1,0 2,-0.4499997 2,-0.9999997 0,-0.55 1.35,-1 3,-1 3.56284,0 3.73307,0.62962 0.84699,3.1327047 L 110.26255,13 l 2.15301,1.867295 C 115.26376,17.337528 115.13133,18 111.78933,18 c -1.63207,0 -3.37425,-0.82553 -4.22076,-2 -0.79284,-1.1 -1.79218,-2 -2.22076,-2 -0.42858,0 -0.77924,0.9 -0.77924,2 0,1.333333 -0.66667,2 -2,2 -1.80953,0 -2,-0.666667 -2,-7 z m 33.19512,5.445417 C 131.84456,14.270937 134.51807,12 138.99714,12 c 1.96429,0 3.57143,-0.45 3.57143,-1 0,-0.55 -1.8,-1 -4,-1 -2.2,0 -4,-0.4499997 -4,-0.9999997 0,-1.556796 8.94885,-1.194005 10.57143,0.428571 0.78571,0.7857147 1.42857,3.0357147 1.42857,4.9999997 V 18 l -5.75,-0.03804 c -3.77907,-0.025 -6.19727,-0.544826 -7.05488,-1.516546 z M 142.56857,15 c 0,-0.55 -1.35,-1 -3,-1 -1.65,0 -3,0.45 -3,1 0,0.55 1.35,1 3,1 1.65,0 3,-0.45 3,-1 z m 23.25,1.504169 c -1.66971,-1.896463 -1.58347,-5.313558 0.17857,-7.0755977 1.64478,-1.644775 12.57143,-2.017275 12.57143,-0.428571 0,0.55 -2.25,0.9999997 -5,0.9999997 -4.88889,0 -5,0.06667 -5,3 0,2.933333 0.11111,3 5,3 2.75,0 5,0.45 5,1 0,1.590404 -11.30011,1.150957 -12.75,-0.495831 z m 15.94512,-0.05875 C 179.84456,14.270937 182.51807,12 186.99714,12 c 1.96429,0 3.57143,-0.45 3.57143,-1 0,-0.55 -1.8,-1 -4,-1 -2.2,0 -4,-0.4499997 -4,-0.9999997 0,-1.556796 8.94885,-1.194005 10.57143,0.428571 0.78571,0.7857147 1.42857,3.0357147 1.42857,4.9999997 V 18 l -5.75,-0.03804 c -3.77907,-0.025 -6.19727,-0.544826 -7.05488,-1.516546 z M 190.56857,15 c 0,-0.55 -1.35,-1 -3,-1 -1.65,0 -3,0.45 -3,1 0,0.55 1.35,1 3,1 1.65,0 3,-0.45 3,-1 z m 8,-2 c 0,-4.2608697 0.28333,-4.9999997 1.91667,-4.9999997 1.05416,0 2.17916,0.5625 2.5,1.25 0.46666,0.9999997 0.7,0.9999997 1.16666,0 0.69027,-1.479136 6.41667,-1.702242 6.41667,-0.25 0,0.55 -1.15714,0.9999997 -2.57143,0.9999997 -3.28046,0 -5.42857,2.148111 -5.42857,5.428571 0,1.904762 -0.51852,2.571429 -2,2.571429 -1.73333,0 -2,-0.666667 -2,-5 z m 36,1 c 0,-3.333333 -0.33333,-4 -2,-4 -1.1,0 -2,-0.4499997 -2,-0.9999997 0,-0.55 0.9,-1 2,-1 1.33333,0 2,-0.666667 2,-2 0,-1.333334 0.66667,-2 2,-2 1.33333,0 2,0.666666 2,2 0,1.333333 0.66667,2 2,2 1.1,0 2,0.45 2,1 0,0.55 -0.9,0.9999997 -2,0.9999997 -1.66667,0 -2,0.666667 -2,4 0,3.333333 -0.33333,4 -2,4 -1.66667,0 -2,-0.666667 -2,-4 z m 11.25,2.504169 c -1.66971,-1.896463 -1.58347,-5.313558 0.17857,-7.0755977 1.84756,-1.84756 9.2953,-1.84756 11.14286,0 0.78571,0.7857147 1.42857,2.3928577 1.42857,3.5714287 0,1.178571 -0.64286,2.785714 -1.42857,3.571429 -1.84857,1.848565 -9.67561,1.802065 -11.32143,-0.06726 z M 254.56857,13 c 0,-2.666667 -0.33333,-3 -3,-3 -2.66667,0 -3,0.333333 -3,3 0,2.666667 0.33333,3 3,3 2.66667,0 3,-0.333333 3,-3 z m 39.25,3.504169 c -0.6875,-0.780866 -1.25,-3.013749 -1.25,-4.961963 0,-2.8755397 0.37641,-3.5422057 2,-3.5422057 1.66667,0 2,0.666666 2,3.9999997 0,3.777778 0.16667,4 3,4 2.83333,0 3,-0.222222 3,-4 0,-3.3333337 0.33333,-3.9999997 2,-3.9999997 1.73333,0 2,0.666666 2,4.9999997 v 5 l -5.75,-0.03804 c -3.67192,-0.02429 -6.20176,-0.551144 -7,-1.457794 z M 308.56857,13 V 8.0000003 H 314.14 c 6.59328,0 8.42857,1.399799 8.42857,6.4285707 0,2.904762 -0.37333,3.571429 -2,3.571429 -1.66667,0 -2,-0.666667 -2,-4 0,-2.2 -0.45,-4 -1,-4 -0.55,0 -1,1.8 -1,4 0,3.333333 -0.33333,4 -2,4 -1.66667,0 -2,-0.666667 -2,-4 0,-2.2 -0.45,-4 -1,-4 -0.55,0 -1,1.8 -1,4 0,2.2 -0.45,4 -1,4 -0.55,0 -1,-2.25 -1,-5 z m 54,1 c 0,-3.333333 -0.33333,-4 -2,-4 -1.1,0 -2,-0.4499997 -2,-0.9999997 0,-0.55 0.9,-1 2,-1 1.33333,0 2,-0.666667 2,-2 0,-1.333334 0.66667,-2 2,-2 1.33333,0 2,0.666666 2,2 0,1.333333 0.66667,2 2,2 1.1,0 2,0.45 2,1 0,0.55 -0.9,0.9999997 -2,0.9999997 -1.66667,0 -2,0.666667 -2,4 0,3.333333 -0.33333,4 -2,4 -1.66667,0 -2,-0.666667 -2,-4 z m 11.25,2.504169 c -1.66971,-1.896463 -1.58347,-5.313558 0.17857,-7.0755977 1.84756,-1.84756 9.2953,-1.84756 11.14286,0 0.78571,0.7857147 1.42857,2.3928577 1.42857,3.5714287 0,1.178571 -0.64286,2.785714 -1.42857,3.571429 -1.84857,1.848565 -9.67561,1.802065 -11.32143,-0.06726 z M 382.56857,13 c 0,-2.666667 -0.33333,-3 -3,-3 -2.66667,0 -3,0.333333 -3,3 0,2.666667 0.33333,3 3,3 2.66667,0 3,-0.333333 3,-3 z m 23.19512,3.445417 C 403.84456,14.270937 406.51807,12 410.99714,12 c 1.96429,0 3.57143,-0.45 3.57143,-1 0,-0.55 -1.8,-1 -4,-1 -2.2,0 -4,-0.4499997 -4,-0.9999997 0,-1.556796 8.94885,-1.194005 10.57143,0.428571 0.78571,0.7857147 1.42857,3.0357147 1.42857,4.9999997 V 18 l -5.75,-0.03804 c -3.77907,-0.025 -6.19727,-0.544826 -7.05488,-1.516546 z M 414.56857,15 c 0,-0.55 -1.35,-1 -3,-1 -1.65,0 -3,0.45 -3,1 0,0.55 1.35,1 3,1 1.65,0 3,-0.45 3,-1 z m 22,2 c 0,-0.55 2.25,-1 5,-1 2.75,0 5,-0.45 5,-1 0,-0.55 -1.60714,-1 -3.57143,-1 -1.96428,0 -4.24643,-0.675 -5.07143,-1.5 -1.33333,-1.333333 -1.33333,-1.666667 0,-2.9999997 1.68628,-1.686277 10.64286,-2.107056 10.64286,-0.5 0,0.55 -1.8,0.9999997 -4,0.9999997 -2.2,0 -4,0.45 -4,1 0,0.55 1.60714,1 3.57143,1 1.96428,0 4.24643,0.675 5.07143,1.5 1.33333,1.333333 1.33333,1.666667 0,3 -1.70867,1.708669 -12.64286,2.141094 -12.64286,0.5 z m 17.25,-0.495831 c -1.66971,-1.896463 -1.58347,-5.313558 0.17857,-7.0755977 1.84756,-1.84756 9.2953,-1.84756 11.14286,0 C 468.12686,12.415433 466.88892,14 461.56857,14 c -2.75,0 -5,0.45 -5,1 0,0.55 1.8,1 4,1 2.2,0 4,0.45 4,1 0,1.559398 -9.31894,1.129573 -10.75,-0.495831 z M 462.56857,11 c 0,-0.55 -1.35,-1 -3,-1 -1.65,0 -3,0.45 -3,1 0,0.55 1.35,1 3,1 1.65,0 3,-0.45 3,-1 z m 7.25,5.504169 c -1.66971,-1.896463 -1.58347,-5.313558 0.17857,-7.0755977 1.64478,-1.644775 12.57143,-2.017275 12.57143,-0.428571 0,0.55 -2.25,0.9999997 -5,0.9999997 -4.88889,0 -5,0.06667 -5,3 0,2.933333 0.11111,3 5,3 2.75,0 5,0.45 5,1 0,1.590404 -11.30011,1.150957 -12.75,-0.495831 z M 490.56857,14 c 0,-3.333333 -0.33333,-4 -2,-4 -1.1,0 -2,-0.4499997 -2,-0.9999997 0,-0.55 0.9,-1 2,-1 1.33333,0 2,-0.666667 2,-2 0,-1.333334 0.66667,-2 2,-2 1.33333,0 2,0.666666 2,2 0,1.333333 0.66667,2 2,2 1.1,0 2,0.45 2,1 0,0.55 -0.9,0.9999997 -2,0.9999997 -1.66667,0 -2,0.666667 -2,4 0,3.333333 -0.33333,4 -2,4 -1.66667,0 -2,-0.666667 -2,-4 z m 12,3 c 0,-0.55 0.9,-1 2,-1 1.55556,0 2,-0.666667 2,-3 0,-1.65 -0.45,-3 -1,-3 -0.55,0 -1,-0.4499997 -1,-0.9999997 0,-0.55 1.35,-1 3,-1 2.83333,0 3,0.222222 3,3.9999997 0,3.333333 0.33333,4 2,4 1.1,0 2,0.45 2,1 0,0.555556 -2.66667,1 -6,1 -3.33333,0 -6,-0.444444 -6,-1 z m 15.25,-0.495831 c -1.66971,-1.896463 -1.58347,-5.313558 0.17857,-7.0755977 1.84756,-1.84756 9.2953,-1.84756 11.14286,0 0.78571,0.7857147 1.42857,2.3928577 1.42857,3.5714287 0,1.178571 -0.64286,2.785714 -1.42857,3.571429 -1.84857,1.848565 -9.67561,1.802065 -11.32143,-0.06726 z M 526.56857,13 c 0,-2.666667 -0.33333,-3 -3,-3 -2.66667,0 -3,0.333333 -3,3 0,2.666667 0.33333,3 3,3 2.66667,0 3,-0.333333 3,-3 z m 6,0 V 8.0000003 H 538.14 c 6.59328,0 8.42857,1.399799 8.42857,6.4285707 0,2.904762 -0.37333,3.571429 -2,3.571429 -1.66667,0 -2,-0.666667 -2,-4 0,-3.777778 -0.16667,-4 -3,-4 -2.83333,0 -3,0.222222 -3,4 0,3.333333 -0.33333,4 -2,4 -1.73333,0 -2,-0.666667 -2,-5 z M 74.568571,5.0000003 c 0,-0.55 0.9,-1 2,-1 1.1,0 2,0.45 2,1 0,0.55 -0.9,1 -2,1 -1.1,0 -2,-0.45 -2,-1 z m 209.999999,0 c 0,-0.55 0.9,-1 2,-1 1.1,0 2,0.45 2,1 0,0.55 -0.9,1 -2,1 -1.1,0 -2,-0.45 -2,-1 z m 222,0 c 0,-0.55 0.9,-1 2,-1 1.1,0 2,0.45 2,1 0,0.55 -0.9,1 -2,1 -1.1,0 -2,-0.45 -2,-1 z"
     id="path817"
     inkscape:connector-curvature="0" />
</svg>
