<?xml version="1.0" encoding="UTF-8" standalone="no"?>
<!-- Created with Inkscape (http://www.inkscape.org/) -->

<svg
   xmlns:dc="http://purl.org/dc/elements/1.1/"
   xmlns:cc="http://creativecommons.org/ns#"
   xmlns:rdf="http://www.w3.org/1999/02/22-rdf-syntax-ns#"
   xmlns:svg="http://www.w3.org/2000/svg"
   xmlns="http://www.w3.org/2000/svg"
   xmlns:sodipodi="http://sodipodi.sourceforge.net/DTD/sodipodi-0.dtd"
   xmlns:inkscape="http://www.inkscape.org/namespaces/inkscape"
   version="1.1"
   id="svg869"
   width="566"
   height="50"
   viewBox="0 0 566 50"
   sodipodi:docname="name.svg"
   inkscape:version="0.92.4 (f8dce91, 2019-08-02)">
  <metadata
     id="metadata875">
    <rdf:RDF>
      <cc:Work
         rdf:about="">
        <dc:format>image/svg+xml</dc:format>
        <dc:type
           rdf:resource="http://purl.org/dc/dcmitype/StillImage" />
        <dc:title></dc:title>
      </cc:Work>
    </rdf:RDF>
  </metadata>
  <defs
     id="defs873" />
  <sodipodi:namedview
     pagecolor="#ffffff"
     bordercolor="#666666"
     borderopacity="1"
     objecttolerance="10"
     gridtolerance="10"
     guidetolerance="10"
     inkscape:pageopacity="0"
     inkscape:pageshadow="2"
     inkscape:window-width="1366"
     inkscape:window-height="706"
     id="namedview871"
     showgrid="false"
     inkscape:zoom="1.4893993"
     inkscape:cx="283"
     inkscape:cy="25"
     inkscape:window-x="0"
     inkscape:window-y="0"
     inkscape:window-maximized="1"
     inkscape:current-layer="svg869" />
  <path
     style="fill:rgb(255,255,255)"
     d="m 17.5,45 4.924816,-5 H 34.996568 47.56832 L 52.78416,34.718555 58,29.437109 V 22.218555 15 h 6.5 6.5 v 9.77346 9.77346 L 63.227876,42.27346 55.455753,50 H 34.015468 12.575184 Z M 72,32 V 14 h 6.5 6.5 v 6.5 6.5 h 6.287592 c 6.221801,0 6.339123,0.05232 11.212408,5 l 4.92482,5 H 96.212408 85 V 43.5 50 H 78.5 72 Z M 105.5,30 85.518753,10 H 47.971785 10.424816 L 5.5,5 0.57518369,0 H 45.426561 90.277938 L 108.63897,18.19149 127,36.38298 V 25.69149 15 h 6.5 6.5 V 32.5 50 h -7.25938 -7.25937 z M 161,43.5 C 154.86053,37.305472 154.33319,37 149.77889,37 H 145 v -5 -5 h 7.21565 7.21565 l 4.78435,4.712408 L 169,36.424816 V 25.712408 15 h 6.5 c 3.66667,0 6.5,0.435897 6.5,1 0,0.614224 4.90414,1 12.71241,1 h 12.71241 L 202.5,22 197.57518,27 H 189.78759 182 v 6.5 6.5 h 11.28759 11.28759 l 4.92482,5 4.92482,5 h -23.4913 -23.4913 z m 56,-11 V 15 h 6.5 6.5 V 32.5 50 H 223.5 217 Z M 235,45 v -5 h 5.27503 C 245.51062,40 245.60575,39.94394 253,32.5 L 260.44994,25 253,17.5 245.55006,10 H 206.48744 167.42482 L 162.5,5 157.57518,0 h 46.47742 46.47741 L 263,12.5 275.46999,25 263,37.5 250.53001,50 h -7.765 H 235 Z M 320.72654,42.227876 313,34.455753 V 17.227876 0 h 6.5 6.5 v 16.297052 16.297052 l 3.79216,3.702948 C 332.88491,39.317035 334.32123,40 337.57975,40 c 3.47121,0 4.6416,0.656028 8.92025,5 l 4.92482,5 h -11.48587 -11.48587 z m 28,0 L 341,34.455753 V 17.227876 0 h 6.5 6.5 v 16.297052 16.297052 l 3.79216,3.702948 C 360.78557,39.220033 362.36532,40 365.29216,40 H 369 V 20 0 h 55.76501 55.765 L 493,12.5 505.46999,25 493,37.5 480.53001,50 h -7.765 H 465 v -5 -5 h 5.27503 C 475.51062,40 475.60575,39.94394 483,32.5 L 490.44994,25 483,17.5 475.55006,10 H 428.77503 382 V 30 50 H 369.22654 356.45308 Z M 384,32.5 V 15 h 6.5 c 3.66667,0 6.5,0.435897 6.5,1 0,0.614224 4.90414,1 12.71241,1 h 12.71241 L 417.5,22 412.57518,27 H 404.78759 397 v 6.5 6.5 h 11.28759 11.28759 l 4.92482,5 4.92482,5 H 406.71241 384 Z m 48,0 V 15 h 6.5 6.5 V 32.5 50 h -6.5 -6.5 z m 15,0 V 15 h 6.5 6.5 V 32.5 50 h -6.5 -6.5 z m 60,0 V 15 h 6.5 c 3.66667,0 6.5,0.435897 6.5,1 0,0.614224 4.90414,1 12.71241,1 h 12.71241 L 540.5,22 535.57518,27 H 527.78759 520 v 6.5 6.5 h 11.28759 11.28759 l 4.92482,5 4.92482,5 H 529.71241 507 Z M 146,22.297607 c 0,-0.386316 1.43328,-2.181164 3.18507,-3.988551 l 3.18507,-3.286158 -2.35938,-2.511449 C 147.76571,10.12171 147.1128,10 136.53809,10 H 125.42482 L 120.5,5 115.57518,0 h 18.48744 18.48744 l 7.43883,7.4888188 7.43884,7.4888192 -3.91681,4.011181 C 159.69878,22.892802 159.41246,23 152.79705,23 149.05867,23 146,22.683923 146,22.297607 Z M 500.5,5 495.57518,0 H 530.5 565.42482 L 560.5,5 555.57518,10 H 530.5 505.42482 Z"
     id="path879"
     inkscape:connector-curvature="0" />
</svg>
