<?xml version="1.0" encoding="UTF-8" standalone="no"?>
<!-- Created with Inkscape (http://www.inkscape.org/) -->

<svg
   xmlns:dc="http://purl.org/dc/elements/1.1/"
   xmlns:cc="http://creativecommons.org/ns#"
   xmlns:rdf="http://www.w3.org/1999/02/22-rdf-syntax-ns#"
   xmlns:svg="http://www.w3.org/2000/svg"
   xmlns="http://www.w3.org/2000/svg"
   xmlns:sodipodi="http://sodipodi.sourceforge.net/DTD/sodipodi-0.dtd"
   xmlns:inkscape="http://www.inkscape.org/namespaces/inkscape"
   width="1000"
   height="1000"
   version="1.1"
   id="svg2216"
   inkscape:version="0.92.4 (f8dce91, 2019-08-02)"
   sodipodi:docname="texas.svg">
   <defs
     id="defs2210">
      <filter id="dropshadow" filterUnits="userSpaceOnUse">
         <feOffset in="SourceAlpha" result="shadowOffsetOuter1"/>
         <feGaussianBlur in="shadowOffsetOuter1" result="shadowBlurOuter1" stdDeviation="5"/>
         <feColorMatrix in="shadowBlurOuter1" result="shadowMatrixOuter1" values="0 0 0 0 1 0 0 0 0 1 0 0 0 0 1 0 0 0 1 0"/>
         <feOffset dy="1" in="SourceAlpha" result="shadowOffsetOuter2"/>
         <feGaussianBlur in="shadowOffsetOuter2" result="shadowBlurOuter2" stdDeviation="7"/>
         <feColorMatrix in="shadowBlurOuter2" result="shadowMatrixOuter2" values="0 0 0 0 1 0 0 0 0 1 0 0 0 0 1 0 0 0 0.9 0"/>
         <feOffset dy="2" in="SourceAlpha" result="shadowOffsetOuter3"/>
         <feGaussianBlur in="shadowOffsetOuter3" result="shadowBlurOuter3" stdDeviation="10"/>
         <feColorMatrix in="shadowBlurOuter3" result="shadowMatrixOuter3" values="0 0 0 0 1 0 0 0 0 1 0 0 0 0 1 0 0 0 0.8 0"/>
         <feOffset dx="2" dy="2" in="SourceAlpha" result="shadowOffsetOuter4"/>
         <feGaussianBlur in="shadowOffsetOuter4" result="shadowBlurOuter4" stdDeviation="1"/>
         <feColorMatrix in="shadowBlurOuter4" result="shadowMatrixOuter4" values="0 0 0 0 0 0 0 0 0 0 0 0 0 0 0 0 0 0 0.69678442 0"/>
         <feOffset dy="2" in="SourceAlpha" result="shadowOffsetOuter5"/>
         <feGaussianBlur in="shadowOffsetOuter5" result="shadowBlurOuter5" stdDeviation="8"/>
         <feColorMatrix in="shadowBlurOuter5" result="shadowMatrixOuter5" values="0 0 0 0 0.314369351 0 0 0 0 0.8883757 0 0 0 0 0.759899616 0 0 0 0.649371603 0"/>
         <feMerge>
         <feMergeNode in="shadowMatrixOuter1"/>
         <feMergeNode in="shadowMatrixOuter2"/>
         <feMergeNode in="shadowMatrixOuter3"/>
         <feMergeNode in="shadowMatrixOuter4"/>
         <feMergeNode in="shadowMatrixOuter5"/>
         </feMerge>
      </filter>
   </defs>
  <metadata
     id="metadata2213">
    <rdf:RDF>
      <cc:Work
         rdf:about="">
        <dc:format>image/svg+xml</dc:format>
        <dc:type
           rdf:resource="http://purl.org/dc/dcmitype/StillImage" />
        <dc:title />
      </cc:Work>
    </rdf:RDF>
  </metadata>
    <path
       style="color:#000000;font-style:normal;font-variant:normal;font-weight:normal;font-stretch:normal;font-size:medium;line-height:normal;font-family:sans-serif;font-variant-ligatures:normal;font-variant-position:normal;font-variant-caps:normal;font-variant-numeric:normal;font-variant-alternates:normal;font-feature-settings:normal;text-indent:0;text-align:start;text-decoration:none;text-decoration-line:none;text-decoration-style:solid;text-decoration-color:#000000;letter-spacing:normal;word-spacing:normal;text-transform:none;writing-mode:lr-tb;direction:ltr;text-orientation:mixed;dominant-baseline:auto;baseline-shift:baseline;text-anchor:start;white-space:normal;shape-padding:0;clip-rule:nonzero;display:inline;overflow:visible;visibility:visible;opacity:1;isolation:auto;mix-blend-mode:normal;color-interpolation:sRGB;color-interpolation-filters:linearRGB;solid-color:#000000;solid-opacity:1;vector-effect:none;fill:#444444;fill-opacity:1;fill-rule:nonzero;stroke:none;stroke-width:6.35093212;stroke-linecap:butt;stroke-linejoin:miter;stroke-miterlimit:4;stroke-dasharray:none;stroke-dashoffset:0;stroke-opacity:1;color-rendering:auto;image-rendering:auto;shape-rendering:auto;text-rendering:auto;enable-background:accumulate;filter:url(#dropshadow);"
       d="m 94.485134,153.61133 c -0.0089,39.73502 -0.02777,79.4717 -0.572556,119.20343 0.0017,5.47069 0.02888,10.94253 -0.121289,16.41178 -3.736768,2.63252 -8.523257,0.43785 -12.717661,1.25145 -24.726843,0.13946 -49.456502,-0.14426 -74.1811218,0.31246 -4.3344641,0.55116 -4.9625379,6.86215 -2.1919706,9.5322 2.7251678,2.88165 7.0297844,4.38489 8.3766874,8.43433 1.722569,3.13892 4.710406,5.38704 7.937884,6.8184 6.988325,5.68816 12.125467,13.61897 20.242493,17.88468 3.47486,2.07153 6.668197,5.07533 7.615515,9.1525 1.496726,3.57578 4.306182,6.86474 3.923508,10.97575 0.729405,5.18148 3.075578,10.12063 6.293668,14.2103 2.83659,2.90069 6.326421,5.05891 9.257193,7.85998 4.555446,3.23368 9.999987,4.88229 14.641567,7.99569 2.852353,1.49713 5.534228,3.63392 8.733689,4.26898 4.727085,0.40403 8.33426,-3.45775 10.60934,-7.13917 2.71968,-3.62278 3.30264,-8.21948 5.14019,-12.23633 1.9322,-3.69131 6.23784,-5.49426 10.15302,-5.89274 4.1333,0.60357 8.24621,1.50077 12.4559,1.40497 3.17169,0.0365 6.75015,0.62431 8.69984,3.42905 3.38339,4.18835 7.86615,7.20564 11.63018,11.00129 3.01487,2.81228 4.61313,6.63398 5.97968,10.42896 2.34428,5.86497 5.68878,11.2739 7.76435,17.24886 2.16273,4.70497 6.78093,7.65393 9.32037,12.13939 1.4015,2.8262 2.84185,5.70919 5.31379,7.78257 2.0973,2.20645 5.44302,3.77518 5.5909,7.21786 0.0592,4.08549 1.42957,7.92932 2.1707,11.91306 1.05132,4.03675 4.34145,7.03268 5.37865,11.10439 1.08839,5.00248 4.25475,10.14377 9.5293,11.41464 3.94131,1.87849 7.86565,3.82834 11.82521,5.64133 3.81202,2.47616 8.22049,4.60083 12.89454,3.91013 4.16427,-0.21916 7.62387,2.22541 10.66898,4.70689 4.36753,1.8675 9.20223,-0.95157 12.27237,-4.00477 3.03657,-2.70572 2.02765,-6.71882 1.44065,-10.18109 -1.25592,-7.94761 -4.81341,-15.50714 -4.83583,-23.63627 0.32057,-10.06902 5.52233,-19.23692 11.58732,-26.98329 4.66242,-4.97999 10.81659,-8.19015 15.82317,-12.77302 5.18474,-3.39357 10.96049,-5.75417 16.19774,-9.06399 4.71869,-2.54853 9.03332,-5.83536 12.57226,-9.86869 4.25508,-3.67189 9.1107,-6.63553 12.94898,-10.78313 3.42946,-2.44324 7.42115,-4.09622 11.41788,-5.3548 4.45306,-0.28425 6.87689,-4.41799 6.98437,-8.52022 0.69783,-4.20865 4.46992,-7.37299 3.97287,-11.94569 -0.31415,-3.32811 -0.90687,-6.72941 0.0144,-10.03748 0.54461,-3.57786 3.30322,-6.37833 3.53209,-10.01758 1.01597,-1.90679 1.22627,-6.98773 -0.0382,-10.06868 -1.71827,-4.61905 -3.91246,-9.0705 -5.7621,-13.61338 -0.74826,-4.19315 -2.05544,-8.49888 -5.02324,-11.68153 -2.10938,-4.8654 -0.82872,-10.27061 -1.28042,-15.38612 -0.096,-9.81129 -0.89699,-19.46428 -1.18328,-29.2727 -6.52084,-8.46448 -14.74906,-9.39104 -24.53481,-14.27249 -8.36595,-3.48008 -25.92196,-3.06576 -32.61486,2.05664 -4.2057,2.14402 -7.64464,-2.398 -11.73287,-2.58227 -4.30371,-2.19637 -8.23979,0.29335 -12.44499,0.68007 -12.51362,-0.15002 -25.69933,-9.76648 -31.59191,-8.51288 -4.19901,-0.0449 -8.35212,-1.07326 -12.44972,-1.95347 -4.82911,-0.43504 -6.61801,-6.47236 -11.48761,-6.80649 -3.80711,0.0864 -8.68071,0.87411 -10.85877,-3.13913 -2.97635,-3.95204 -2.26288,-9.23157 -2.26283,-13.86672 0.341,-5.63876 0.94063,-11.32008 0.20331,-16.94764 0.0895,-9.94878 0.0422,-19.89959 0.0805,-29.84917 -27.76976,2.4e-4 -55.53962,-2.4e-4 -83.309316,-10e-4 z M 237.31546,482.23454 c 0.40647,0.13538 0.80147,0.2667 0,0 z M 136.16781,161.52498 c 11.23602,0.0216 22.47256,-0.0451 33.70807,0.0939 0.18144,13.85397 0.34816,27.72856 -0.68141,41.55543 -0.23581,5.6859 0.28827,12.07312 4.62853,16.2638 3.07295,3.38373 7.28728,6.64669 12.14374,5.88511 4.25606,-1.04283 6.27419,2.85627 9.36828,4.66561 4.96189,2.48223 10.6281,2.90872 16.00476,3.92215 12.3989,1.3983 20.32761,7.73576 34.9431,8.73717 4.11399,0.18026 8.08281,-2.91389 12.15846,-0.73614 3.84882,1.59774 7.8124,4.62053 12.1912,2.8217 10.88665,-6.41215 23.74253,-4.89974 33.02186,-0.14594 3.88007,1.74343 7.73676,3.65476 11.6448,5.26796 3.4626,-0.25328 4.6057,5.25795 4.6057,5.25795 0.29116,12.52645 0.72608,25.39584 1.46385,37.90705 0.83158,4.5702 5.4965,7.55847 5.51592,12.39583 1.30526,5.74292 5.00912,10.61049 6.44972,16.29448 0.93616,4.04692 -0.75438,7.99092 -2.49188,11.55088 -2.06987,4.69297 -2.13422,9.90947 -1.47096,14.90414 -0.37392,4.36432 -3.55833,7.96396 -4.4539,12.30586 -0.98738,2.45348 -4.5869,2.04357 -6.67197,3.45212 -4.3095,1.78437 -8.41568,4.16466 -11.55232,7.67767 -3.22295,3.3014 -7.46226,5.36203 -10.65065,8.71695 -3.12293,3.30404 -6.60805,6.27478 -10.68944,8.34043 -6.59305,3.89745 -13.82355,6.82905 -19.76095,11.75189 -5.27633,4.6706 -11.93601,7.88902 -15.90984,13.92492 -7.68629,10.04895 -13.32232,22.80073 -11.33694,35.68289 0.98048,6.40716 3.42845,12.482 4.43475,18.8839 2.58957,3.68368 -2.88371,7.67527 -5.49102,3.76426 -3.49842,-2.75599 -8.03004,-3.15941 -12.31361,-3.0109 -3.40555,0.40462 -5.7722,-2.19923 -8.59567,-3.53534 -4.52716,-2.0486 -9.07123,-4.0692 -13.4333,-6.4423 -3.3291,-1.5798 -3.22712,-5.3803 -4.4663,-8.29478 -1.55419,-3.72165 -4.68558,-6.8165 -4.99376,-10.99059 -0.81551,-3.8723 -1.55003,-7.77438 -2.09401,-11.68515 -1.61657,-5.08697 -7.41962,-6.92867 -9.67624,-11.5668 -2.26606,-3.90614 -4.51102,-7.96609 -8.08102,-10.8541 -3.30974,-3.58161 -3.98802,-8.63083 -6.43959,-12.73308 -2.39791,-4.57139 -4.23189,-9.39992 -6.24078,-14.13795 -3.8042,-6.7483 -10.66295,-10.89553 -15.76195,-16.5458 -2.01982,-2.40928 -4.22049,-4.95351 -7.45656,-5.64073 -4.70924,-1.15577 -9.63362,-0.65364 -14.39504,-1.54136 -2.99604,-0.39234 -6.00435,-1.64054 -9.01648,-0.50585 -3.24307,1.14458 -6.64306,2.22801 -9.40915,4.327 -3.06298,2.3021 -4.80847,5.82246 -5.9146,9.38772 -1.27405,3.71724 -2.504436,7.82369 -5.651329,10.39346 -3.233392,1.58029 -5.399379,-2.8767 -8.423666,-3.61563 -3.515126,-2.07594 -7.32371,-3.67782 -10.897032,-5.57911 -4.250858,-3.80159 -9.750238,-6.67433 -11.934851,-12.27946 -2.247884,-3.95453 -1.203035,-8.73522 -3.244165,-12.75672 -2.163742,-3.86478 -3.455369,-8.1846 -5.97837,-11.84701 -3.72267,-5.0279 -9.925225,-7.06462 -14.335654,-11.30119 -5.29348,-5.36553 -10.134464,-11.51769 -16.924439,-15.08682 -2.066758,-2.66861 -4.213726,-5.97313 -6.026799,-8.39312 3.144837,-0.26065 6.432142,0.0677 9.65419,-0.11425 23.224033,-0.11378 46.4484,-0.1181 69.672592,-0.17859 3.87592,-1.80674 7.565803,-5.7931 6.706693,-10.3718 0.0615,-35.21828 0.78211,-70.43308 0.59471,-105.65231 0.0113,-6.8321 0.0391,-13.66425 0.11999,-20.49592 11.27799,-0.0936 22.55647,-0.0857 33.83474,-0.0936 z m 85.85947,66.91452 c 0.397,0.27746 0.45013,0.31459 0,0 z M 15.0016,300.46881 c 0.228533,0.2572 0.144413,0.1625 0,0 z" />
</svg>
